<svg xmlns="http://www.w3.org/2000/svg" viewBox="0 0 64 64" role="img" aria-label="GitHub Local Ops plugin icon">
  <rect width="64" height="64" rx="14" fill="#24292F"/>
  <circle cx="32" cy="32" r="21" fill="#F6F8FA"/>
  <path d="M32 11.8c-11.3 0-20.4 9.1-20.4 20.4 0 9 5.8 16.6 13.9 19.3 1 .2 1.4-.4 1.4-1v-3.8c-5.7 1.2-6.9-2.4-6.9-2.4-.9-2.3-2.2-2.9-2.2-2.9-1.8-1.2.1-1.2.1-1.2 2 .1 3 2 3 2 1.8 3 4.7 2.1 5.9 1.6.2-1.3.7-2.1 1.3-2.6-4.5-.5-9.3-2.3-9.3-10.1 0-2.2.8-4.1 2-5.5-.2-.5-.9-2.6.2-5.4 0 0 1.7-.5 5.6 2.1 1.6-.4 3.4-.7 5.1-.7 1.7 0 3.5.2 5.1.7 3.9-2.6 5.6-2.1 5.6-2.1 1.1 2.8.4 4.9.2 5.4 1.3 1.4 2 3.3 2 5.5 0 7.8-4.8 9.6-9.3 10.1.7.6 1.4 1.9 1.4 3.8v5.6c0 .6.4 1.2 1.4 1 8.1-2.7 13.9-10.3 13.9-19.3 0-11.3-9.1-20.4-20.4-20.4Z" fill="#24292F"/>
  <path d="M42.5 44.8 50 52.3" stroke="#2F81F7" stroke-width="5" stroke-linecap="round"/>
</svg>
